<?xml version="1.0" standalone="no"?>
<!DOCTYPE svg PUBLIC "-//W3C//DTD SVG 1.1//EN" "http://www.w3.org/Graphics/SVG/1.1/DTD/svg11.dtd" >
<svg xmlns="http://www.w3.org/2000/svg">
<metadata>Generated by IcoMoon</metadata>
<defs>
<font id="icomoon" horiz-adv-x="1024">
<font-face units-per-em="1024" ascent="960" descent="-64" />
<missing-glyph horiz-adv-x="1024" />
<glyph unicode="&#x20;" horiz-adv-x="512" d="" />
<glyph unicode="&#xe900;" glyph-name="google-plus" d="M559.066 896c0 0-200.956 0-267.94 0-120.12 0-233.17-91.006-233.17-196.422 0-107.726 81.882-194.666 204.088-194.666 8.498 0 16.756 0.17 24.842 0.752-7.93-15.186-13.602-32.288-13.602-50.042 0-29.938 16.104-54.21 36.468-74.024-15.386 0-30.242-0.448-46.452-0.448-148.782 0.002-263.3-94.758-263.3-193.020 0-96.778 125.542-157.314 274.334-157.314 169.624 0 263.306 96.244 263.306 193.028 0 77.6-22.896 124.072-93.686 174.134-24.216 17.144-70.53 58.836-70.53 83.344 0 28.72 8.196 42.868 51.428 76.646 44.312 34.624 75.672 83.302 75.672 139.916 0 67.406-30.020 133.098-86.372 154.772h84.954l59.96 43.344zM465.48 240.542c2.126-8.972 3.284-18.206 3.284-27.628 0-78.2-50.392-139.31-194.974-139.31-102.842 0-177.116 65.104-177.116 143.3 0 76.642 92.126 140.444 194.964 139.332 24-0.254 46.368-4.116 66.67-10.69 55.826-38.826 95.876-60.762 107.172-105.004zM300.818 532.224c-69.038 2.064-134.636 77.226-146.552 167.86-11.916 90.666 34.37 160.042 103.388 157.99 69.010-2.074 134.638-74.814 146.558-165.458 11.906-90.66-34.39-162.458-103.394-160.392zM832 704v192h-64v-192h-192v-64h192v-192h64v192h192v64z" />
<glyph unicode="&#xe901;" glyph-name="facebook" d="M672 768c-88.366 0-160-71.634-160-160v-96h-128v-128h128v-448h128v448h144l32 128h-176v96c0 17.672 14.326 32 32 32h160v128h-160z" />
<glyph unicode="&#xe902;" glyph-name="twitter" d="M1024 765.582c-37.676-16.708-78.164-28.002-120.66-33.080 43.372 26 76.686 67.17 92.372 116.23-40.596-24.078-85.556-41.56-133.41-50.98-38.32 40.83-92.922 66.34-153.346 66.34-116.022 0-210.088-94.058-210.088-210.078 0-16.466 1.858-32.5 5.44-47.878-174.6 8.764-329.402 92.4-433.018 219.506-18.084-31.028-28.446-67.116-28.446-105.618 0-72.888 37.088-137.192 93.46-174.866-34.438 1.092-66.832 10.542-95.154 26.278-0.020-0.876-0.020-1.756-0.020-2.642 0-101.788 72.418-186.696 168.522-206-17.626-4.8-36.188-7.372-55.348-7.372-13.538 0-26.698 1.32-39.528 3.772 26.736-83.46 104.32-144.206 196.252-145.896-71.9-56.35-162.486-89.934-260.916-89.934-16.958 0-33.68 0.994-50.116 2.94 92.972-59.61 203.402-94.394 322.042-94.394 386.422 0 597.736 320.124 597.736 597.744 0 9.108-0.206 18.168-0.61 27.18 41.056 29.62 76.672 66.62 104.836 108.748z" />
<glyph unicode="&#xe903;" glyph-name="hatebu" d="M965.702 180.845c0-55.779-45.218-100.997-100.997-100.997s-100.997 45.218-100.997 100.997c0 55.779 45.218 100.997 100.997 100.997s100.997-45.218 100.997-100.997zM772.732 840.666h183.939v-502.362h-183.939v502.362zM492.962 502.693c0 0 127.093 8.012 127.093 160.328 0 176.36-159.157 177.249-250.011 177.249-58.934 0-88.7 0-127.816 0h-183.939v-760.818h183.939c32.599 0 73.484 0 125.143 0 251.181 0 293.938 137.324 293.938 225.504s-42.757 171.013-168.347 197.738zM252.12 696.97c70.103 0 66.953 0 85.507 0 16.032 0 85.507-6.835 85.507-72.972 0-78.159-60.126-75.493-100.202-75.493-40.084 0-20.042 0-70.811 0v148.465zM352.322 241.216c-46.767 0-65.472 0-100.209 0v167.004c0 0 44.094 0 102.211 0s102.203-12.022 102.203-83.505-57.445-83.498-104.205-83.498z" />
<glyph unicode="&#xe904;" glyph-name="home" d="M1024 369.556l-512 397.426-512-397.428v162.038l512 397.426 512-397.428zM896 384v-384h-256v256h-256v-256h-256v384l384 288z" />
<glyph unicode="&#xe905;" glyph-name="folder-open" d="M832 0l192 512h-832l-192-512zM128 576l-128-576v832h288l128-128h416v-128z" />
<glyph unicode="&#xe906;" glyph-name="price-tag" d="M976 960h-384c-26.4 0-63.274-15.274-81.942-33.942l-476.116-476.116c-18.668-18.668-18.668-49.214 0-67.882l412.118-412.118c18.668-18.668 49.214-18.668 67.882 0l476.118 476.118c18.666 18.666 33.94 55.54 33.94 81.94v384c0 26.4-21.6 48-48 48zM736 576c-53.020 0-96 42.98-96 96s42.98 96 96 96 96-42.98 96-96-42.98-96-96-96z" />
<glyph unicode="&#xe907;" glyph-name="bubble2" d="M512 768c-54.932 0-107.988-8.662-157.694-25.742-46.712-16.054-88.306-38.744-123.628-67.444-66.214-53.798-102.678-122.984-102.678-194.814 0-40.298 11.188-79.378 33.252-116.152 22.752-37.92 56.982-72.586 98.988-100.252 30.356-19.992 50.78-51.948 56.176-87.894 1.8-11.984 2.928-24.088 3.37-36.124 7.47 6.194 14.75 12.846 21.88 19.976 24.154 24.152 56.78 37.49 90.502 37.49 5.368 0 10.762-0.336 16.156-1.024 20.974-2.666 42.398-4.020 63.676-4.020 54.934 0 107.988 8.66 157.694 25.742 46.712 16.054 88.306 38.744 123.628 67.444 66.214 53.796 102.678 122.984 102.678 194.814s-36.464 141.016-102.678 194.814c-35.322 28.698-76.916 51.39-123.628 67.444-49.706 17.080-102.76 25.742-157.694 25.742zM512 896v0c282.77 0 512-186.25 512-416 0-229.752-229.23-416-512-416-27.156 0-53.81 1.734-79.824 5.044-109.978-109.978-241.25-129.7-368.176-132.596v26.916c68.536 33.578 128 94.74 128 164.636 0 9.754-0.758 19.33-2.164 28.696-115.796 76.264-189.836 192.754-189.836 323.304 0 229.75 229.23 416 512 416z" />
<glyph unicode="&#xe908;" glyph-name="bubbles3" horiz-adv-x="1152" d="M1088 58.834c0-45.5 26.028-84.908 64-104.184v-15.938c-10.626-1.454-21.472-2.224-32.5-2.224-68.008 0-129.348 28.528-172.722 74.264-26.222-6.982-54.002-10.752-82.778-10.752-159.058 0-288 114.616-288 256s128.942 256 288 256c159.058 0 288-114.616 288-256 0-55.348-19.764-106.592-53.356-148.466-6.824-14.824-10.644-31.312-10.644-48.7zM230.678 738.814c-66.214-53.798-102.678-122.984-102.678-194.814 0-40.298 11.188-79.378 33.252-116.15 22.752-37.92 56.982-72.586 98.988-100.252 30.356-19.992 50.78-51.948 56.176-87.894 1.8-11.984 2.928-24.088 3.37-36.124 7.47 6.194 14.75 12.846 21.88 19.976 24.154 24.152 56.78 37.49 90.502 37.49 5.368 0 10.762-0.336 16.156-1.024 20.948-2.662 42.344-4.016 63.594-4.020v-128c-27.128 0.002-53.754 1.738-79.742 5.042-109.978-109.978-241.25-129.7-368.176-132.596v26.916c68.536 33.578 128 94.74 128 164.636 0 9.754-0.758 19.33-2.164 28.696-115.796 76.264-189.836 192.754-189.836 323.304 0 229.75 229.23 416 512 416 278.458 0 504.992-180.614 511.836-405.52-41.096 18.316-85.84 29.422-132.262 32.578-11.53 56.068-45.402 108.816-98.252 151.756-35.322 28.698-76.916 51.39-123.628 67.444-49.706 17.080-102.76 25.742-157.694 25.742-54.932 0-107.988-8.662-157.694-25.742-46.712-16.054-88.306-38.744-123.628-67.444z" />
<glyph unicode="&#xe909;" glyph-name="bubbles4" horiz-adv-x="1152" d="M480 832c-50.666 0-99.582-7.95-145.386-23.628-42.924-14.694-81.114-35.436-113.502-61.646-60.044-48.59-93.112-110.802-93.112-175.174 0-35.99 10.066-70.948 29.92-103.898 20.686-34.34 51.898-65.794 90.26-90.958 30.44-19.968 50.936-51.952 56.362-87.95 0.902-5.99 1.63-12.006 2.18-18.032 2.722 2.52 5.424 5.114 8.114 7.794 24.138 24.040 56.688 37.312 90.322 37.312 5.348 0 10.718-0.336 16.094-1.018 19.36-2.452 39.124-3.696 58.748-3.696 50.666 0 99.58 7.948 145.384 23.628 42.926 14.692 81.116 35.434 113.504 61.644 60.046 48.59 93.112 110.802 93.112 175.174s-33.066 126.582-93.112 175.174c-32.388 26.212-70.578 46.952-113.504 61.646-45.804 15.678-94.718 23.628-145.384 23.628zM480 960v0c265.096 0 480-173.914 480-388.448s-214.904-388.448-480-388.448c-25.458 0-50.446 1.62-74.834 4.71-103.106-102.694-222.172-121.108-341.166-123.814v25.134c64.252 31.354 116 88.466 116 153.734 0 9.106-0.712 18.048-2.030 26.794-108.558 71.214-177.97 179.988-177.97 301.89 0 214.534 214.904 388.448 480 388.448zM996 89.314c0-55.942 36.314-104.898 92-131.772v-21.542c-103.126 2.318-197.786 18.102-287.142 106.126-21.14-2.65-42.794-4.040-64.858-4.040-95.47 0-183.408 25.758-253.614 69.040 144.674 0.506 281.26 46.854 384.834 130.672 52.208 42.252 93.394 91.826 122.414 147.348 30.766 58.866 46.366 121.582 46.366 186.406 0 10.448-0.45 20.836-1.258 31.168 72.57-59.934 117.258-141.622 117.258-231.676 0-104.488-60.158-197.722-154.24-258.764-1.142-7.496-1.76-15.16-1.76-22.966z" />
<glyph unicode="&#xe90a;" glyph-name="menu" d="M64 768h896v-192h-896zM64 512h896v-192h-896zM64 256h896v-192h-896z" />
<glyph unicode="&#xe90b;" glyph-name="clock" d="M658.744 210.744l-210.744 210.746v282.51h128v-229.49l173.256-173.254zM512 960c-282.77 0-512-229.23-512-512s229.23-512 512-512 512 229.23 512 512-229.23 512-512 512zM512 64c-212.078 0-384 171.922-384 384s171.922 384 384 384c212.078 0 384-171.922 384-384s-171.922-384-384-384z" />
<glyph unicode="&#xe90c;" glyph-name="spinner11" d="M1024 576h-384l143.53 143.53c-72.53 72.526-168.96 112.47-271.53 112.47s-199-39.944-271.53-112.47c-72.526-72.53-112.47-168.96-112.47-271.53s39.944-199 112.47-271.53c72.53-72.526 168.96-112.47 271.53-112.47s199 39.944 271.528 112.472c6.056 6.054 11.86 12.292 17.456 18.668l96.32-84.282c-93.846-107.166-231.664-174.858-385.304-174.858-282.77 0-512 229.23-512 512s229.23 512 512 512c141.386 0 269.368-57.326 362.016-149.984l149.984 149.984v-384z" />
<glyph unicode="&#xe90d;" glyph-name="plus" d="M992 576h-352v352c0 17.672-14.328 32-32 32h-192c-17.672 0-32-14.328-32-32v-352h-352c-17.672 0-32-14.328-32-32v-192c0-17.672 14.328-32 32-32h352v-352c0-17.672 14.328-32 32-32h192c17.672 0 32 14.328 32 32v352h352c17.672 0 32 14.328 32 32v192c0 17.672-14.328 32-32 32z" />
<glyph unicode="&#xe90e;" glyph-name="minus" d="M0 544v-192c0-17.672 14.328-32 32-32h960c17.672 0 32 14.328 32 32v192c0 17.672-14.328 32-32 32h-960c-17.672 0-32-14.328-32-32z" />
<glyph unicode="&#xe90f;" glyph-name="cross" d="M1014.662 137.34c-0.004 0.004-0.008 0.008-0.012 0.010l-310.644 310.65 310.644 310.65c0.004 0.004 0.008 0.006 0.012 0.010 3.344 3.346 5.762 7.254 7.312 11.416 4.246 11.376 1.824 24.682-7.324 33.83l-146.746 146.746c-9.148 9.146-22.45 11.566-33.828 7.32-4.16-1.55-8.070-3.968-11.418-7.31 0-0.004-0.004-0.006-0.008-0.010l-310.648-310.652-310.648 310.65c-0.004 0.004-0.006 0.006-0.010 0.010-3.346 3.342-7.254 5.76-11.414 7.31-11.38 4.248-24.682 1.826-33.83-7.32l-146.748-146.748c-9.148-9.148-11.568-22.452-7.322-33.828 1.552-4.16 3.97-8.072 7.312-11.416 0.004-0.002 0.006-0.006 0.010-0.010l310.65-310.648-310.65-310.652c-0.002-0.004-0.006-0.006-0.008-0.010-3.342-3.346-5.76-7.254-7.314-11.414-4.248-11.376-1.826-24.682 7.322-33.83l146.748-146.746c9.15-9.148 22.452-11.568 33.83-7.322 4.16 1.552 8.070 3.97 11.416 7.312 0.002 0.004 0.006 0.006 0.010 0.010l310.648 310.65 310.648-310.65c0.004-0.002 0.008-0.006 0.012-0.008 3.348-3.344 7.254-5.762 11.414-7.314 11.378-4.246 24.684-1.826 33.828 7.322l146.746 146.748c9.148 9.148 11.57 22.454 7.324 33.83-1.552 4.16-3.97 8.068-7.314 11.414z" />
<glyph unicode="&#xe910;" glyph-name="search" d="M992.262 88.604l-242.552 206.294c-25.074 22.566-51.89 32.926-73.552 31.926 57.256 67.068 91.842 154.078 91.842 249.176 0 212.078-171.922 384-384 384-212.076 0-384-171.922-384-384s171.922-384 384-384c95.098 0 182.108 34.586 249.176 91.844-1-21.662 9.36-48.478 31.926-73.552l206.294-242.552c35.322-39.246 93.022-42.554 128.22-7.356s31.892 92.898-7.354 128.22zM384 320c-141.384 0-256 114.616-256 256s114.616 256 256 256 256-114.616 256-256-114.614-256-256-256z" />
<glyph unicode="&#xe911;" glyph-name="eye" d="M512 768c-223.318 0-416.882-130.042-512-320 95.118-189.958 288.682-320 512-320 223.312 0 416.876 130.042 512 320-95.116 189.958-288.688 320-512 320zM764.45 598.296c60.162-38.374 111.142-89.774 149.434-150.296-38.292-60.522-89.274-111.922-149.436-150.296-75.594-48.218-162.89-73.704-252.448-73.704-89.56 0-176.858 25.486-252.452 73.704-60.158 38.372-111.138 89.772-149.432 150.296 38.292 60.524 89.274 111.924 149.434 150.296 3.918 2.5 7.876 4.922 11.86 7.3-9.96-27.328-15.41-56.822-15.41-87.596 0-141.382 114.616-256 256-256 141.382 0 256 114.618 256 256 0 30.774-5.452 60.268-15.408 87.598 3.978-2.378 7.938-4.802 11.858-7.302v0zM512 544c0-53.020-42.98-96-96-96s-96 42.98-96 96 42.98 96 96 96 96-42.982 96-96z" />
<glyph unicode="&#xe912;" glyph-name="happy" d="M512-64c282.77 0 512 229.23 512 512s-229.23 512-512 512-512-229.23-512-512 229.23-512 512-512zM512 864c229.75 0 416-186.25 416-416s-186.25-416-416-416-416 186.25-416 416 186.25 416 416 416zM512 361.24c115.95 0 226.23 30.806 320 84.92-14.574-178.438-153.128-318.16-320-318.16-166.868 0-305.422 139.872-320 318.304 93.77-54.112 204.050-85.064 320-85.064zM256 608c0 53.019 28.654 96 64 96s64-42.981 64-96c0-53.019-28.654-96-64-96s-64 42.981-64 96zM640 608c0 53.019 28.654 96 64 96s64-42.981 64-96c0-53.019-28.654-96-64-96s-64 42.981-64 96z" />
<glyph unicode="&#xe913;" glyph-name="quotes-left" d="M225 512c123.712 0 224-100.29 224-224 0-123.712-100.288-224-224-224s-224 100.288-224 224l-1 32c0 247.424 200.576 448 448 448v-128c-85.474 0-165.834-33.286-226.274-93.726-11.634-11.636-22.252-24.016-31.83-37.020 11.438 1.8 23.16 2.746 35.104 2.746zM801 512c123.71 0 224-100.29 224-224 0-123.712-100.29-224-224-224s-224 100.288-224 224l-1 32c0 247.424 200.576 448 448 448v-128c-85.474 0-165.834-33.286-226.274-93.726-11.636-11.636-22.254-24.016-31.832-37.020 11.44 1.8 23.16 2.746 35.106 2.746z" />
<glyph unicode="&#xe914;" glyph-name="quotes-right" d="M800 320c-123.712 0-224 100.29-224 224 0 123.712 100.288 224 224 224s224-100.288 224-224l1-32c0-247.424-200.576-448-448-448v128c85.474 0 165.834 33.286 226.274 93.726 11.634 11.636 22.252 24.016 31.83 37.020-11.438-1.8-23.16-2.746-35.104-2.746zM224 320c-123.71 0-224 100.29-224 224 0 123.712 100.29 224 224 224s224-100.288 224-224l1-32c0-247.424-200.576-448-448-448v128c85.474 0 165.834 33.286 226.274 93.726 11.636 11.636 22.254 24.016 31.832 37.020-11.44-1.8-23.16-2.746-35.106-2.746z" />
<glyph unicode="&#xe915;" glyph-name="play2" d="M512 960c-282.77 0-512-229.23-512-512s229.23-512 512-512 512 229.23 512 512-229.23 512-512 512zM512 32c-229.75 0-416 186.25-416 416s186.25 416 416 416 416-186.25 416-416-186.25-416-416-416zM384 672l384-224-384-224z" />
<glyph unicode="&#xe916;" glyph-name="play3" d="M192 832l640-384-640-384z" />
<glyph unicode="&#xe917;" glyph-name="return1" d="M648.724 27.628l-293.745 0.102c-173.179 0-314.020 140.882-314.020 313.999 0 173.138 140.861 314.020 314.020 314.020l339.599 0.225-131.297 130.335c-3.4 3.379-5.325 8.008-5.325 12.78 0 4.813 1.925 9.4 5.325 12.8l81.572 81.572c7.066 7.045 18.493 7.045 25.559 0l306.237-306.278c7.107-7.066 7.107-18.493 0-25.58l-306.258-306.237c-3.4-3.4-7.967-5.304-12.78-5.304-4.772 0-9.421 1.905-12.78 5.304l-81.572 81.592c-6.84 6.779-6.84 18.76 0 25.559l131.277 130.785-339.579-0.225c-83.476 0-151.347-67.912-151.347-151.347 0-83.476 67.871-151.347 151.347-151.347h13.148v0.061h280.596c10.097 0 18.289-8.151 18.289-18.248v-126.321c0-10.076-8.172-18.248-18.268-18.248z" />
<glyph unicode="&#xe918;" glyph-name="return2" d="M102.543 193.802c0-63.283 13.332-123.392 37.069-177.93 35.246 186.040 212.787 327.393 409.108 327.393 0-17.572 0-178.483 0-178.483-1.004-8.765 1.946-14.459 8.704-21.197 13.025-13.005 33.26-7.66 44.278 1.761l295.506 323.994c6.287 6.246 8.95 14.52 8.54 22.692 0.41 8.172-2.253 16.466-8.54 22.692l-297.103 325.796c-11.776 11.694-30.884 11.694-42.66 0-6.779-6.738-9.175-15.811-8.172-24.596v-175.432c-246.723-0.020-446.73-200.008-446.73-446.689z" />
<glyph unicode="&#xe919;" glyph-name="circle-right" d="M512 960c-282.77 0-512-229.23-512-512s229.23-512 512-512 512 229.23 512 512-229.23 512-512 512zM512 32c-229.75 0-416 186.25-416 416s186.25 416 416 416 416-186.25 416-416-186.25-416-416-416zM354.744 253.256l90.512-90.512 285.254 285.256-285.256 285.254-90.508-90.508 194.744-194.746z" />
<glyph unicode="&#xe91a;" glyph-name="circle-left" d="M512-64c282.77 0 512 229.23 512 512s-229.23 512-512 512-512-229.23-512-512 229.23-512 512-512zM512 864c229.75 0 416-186.25 416-416s-186.25-416-416-416-416 186.25-416 416 186.25 416 416 416zM669.256 642.744l-90.512 90.512-285.254-285.256 285.256-285.254 90.508 90.508-194.744 194.746z" />
<glyph unicode="&#xe91b;" glyph-name="next" d="M213.333 832l130.432 128 509.568-512-509.568-512-130.432 128 384 384-384 384z" />
<glyph unicode="&#xe91c;" glyph-name="next_b" d="M346.539-64l-175.872 170.667 341.333 341.333-341.333 341.333 175.872 170.667 506.795-512-506.795-512z" />
<glyph unicode="&#xe91d;" glyph-name="previous" d="M469.333 448l384-384-130.475-128-509.525 512 509.525 512 130.475-128-384-384z" />
<glyph unicode="&#xe91e;" glyph-name="previous_b" d="M170.667 448l506.795 512 175.872-170.667-341.333-341.333 341.333-341.333-175.872-170.667-506.795 512z" />
<glyph unicode="&#xe91f;" glyph-name="circle-up" d="M0 448c0-282.77 229.23-512 512-512s512 229.23 512 512-229.23 512-512 512-512-229.23-512-512zM928 448c0-229.75-186.25-416-416-416s-416 186.25-416 416 186.25 416 416 416 416-186.25 416-416zM706.744 290.744l90.512 90.512-285.256 285.254-285.254-285.256 90.508-90.508 194.746 194.744z" />
<glyph unicode="&#xe920;" glyph-name="circle-down" d="M1024 448c0 282.77-229.23 512-512 512s-512-229.23-512-512 229.23-512 512-512 512 229.23 512 512zM96 448c0 229.75 186.25 416 416 416s416-186.25 416-416-186.25-416-416-416-416 186.25-416 416zM317.256 605.256l-90.512-90.512 285.256-285.254 285.254 285.256-90.508 90.508-194.746-194.744z" />
<glyph unicode="&#xe921;" glyph-name="bottom" d="M123.431 676.746c38.046 37.927 99.564 37.927 137.531 0v0l251.077-251.077 250.998 251.077c37.967 37.927 99.564 37.927 137.531 0v0c37.967-38.006 37.967-99.604 0-137.61v0l-319.803-319.764c-18.117-18.078-43.166-28.514-68.726-28.514v0c-25.6 0-50.688 10.437-68.766 28.514v0l-319.842 319.764c-18.944 18.983-28.436 43.914-28.436 68.766v0c0 24.93 9.492 49.822 28.436 68.844v0z" />
<glyph unicode="&#xe922;" glyph-name="left" d="M740.746 836.608c37.927-38.046 37.927-99.564 0-137.531v0l-251.077-251.077 251.077-250.998c37.927-37.967 37.927-99.564 0-137.531v0c-38.006-37.967-99.604-37.967-137.61 0v0l-319.764 319.803c-18.078 18.117-28.514 43.166-28.514 68.726v0c0 25.6 10.437 50.688 28.514 68.766v0l319.764 319.842c18.983 18.944 43.914 28.436 68.766 28.436v0c24.93 0 49.822-9.492 68.844-28.436v0z" />
<glyph unicode="&#xe923;" glyph-name="right" d="M283.294 59.431c-37.927 38.046-37.927 99.564 0 137.531v0l251.077 251.077-251.077 250.998c-37.927 37.967-37.927 99.564 0 137.531v0c38.006 37.967 99.604 37.967 137.61 0v0l319.764-319.803c18.078-18.117 28.514-43.166 28.514-68.726v0c0-25.6-10.437-50.688-28.514-68.766v0l-319.764-319.842c-18.983-18.905-43.914-28.436-68.766-28.436v0c-24.93 0-49.861 9.492-68.844 28.436v0z" />
<glyph unicode="&#xe924;" glyph-name="lock" horiz-adv-x="780" d="M26.314 465.79v-453.035c0-32.611 26.216-58.977 58.972-58.977h611.344c32.616 0 58.982 26.365 58.982 58.977v453.035c0 32.457-26.365 58.804-58.982 58.804h-611.349c-32.752 0-58.968-26.342-58.968-58.804zM334.73 364.004c62.329 47.524 130.746 5.469 132.731-53.489 0.155-0.773 0.155-1.84 0.155-2.594 0-20.583-8.231-39.326-21.646-53.040-15.845-16.598-23.313-39.307-23.313-62.17v-67.203c0-27.587-35.505-46.925-63.388-15.222v95.231c0 17.675-7.777 34.433-20.728 46.639-15.545 14.468-24.994 35.187-24.23 58.359 0.613 17.221 6.859 35.655 20.419 53.489zM88.035 185.242c0 15.437 13.958 25.115 27.054 22.835 0 0 0.009 0 0.019 0 4.359-0.768 8.625-2.87 12.239-6.532l147.498-147.363c14.632-14.622 4.275-39.466-16.299-39.466h-147.503c-12.651 0-23.013 10.376-23.013 23.022l0.005 147.503zM512.695 554.457v-0.445h95.259v158.576c0 119.602-97.376 216.977-216.991 216.977-119.719 0-216.996-97.376-216.996-216.977v-158.576h95.269v158.576c0 67.115 54.51 121.728 121.728 121.728 67.115 0 121.732-54.613 121.732-121.728v-158.132z" />
<glyph unicode="&#xe925;" glyph-name="loupe" horiz-adv-x="1030" d="M705.511 342.239c108 148.747 95.050 358.627-38.966 492.666-148.419 148.403-389.933 148.403-538.335 0-148.439-148.436-148.439-389.913 0-538.349 134.016-134.016 343.902-146.966 492.629-38.986l29.426-29.386 84.659 84.652-29.412 29.403zM592.731 370.344c-107.884-107.864-282.83-107.884-390.73 0-107.901 107.901-107.901 282.863 0 390.747 107.907 107.884 282.846 107.884 390.73 0 107.904-107.884 107.904-282.846 0-390.747zM242.692 699.552c-56.024-71.974-60.669-170.989-13.98-247.478 4.433-7.22 13.88-9.524 21.12-5.088 7.223 4.433 9.507 13.877 5.095 21.097v-0.017c-40.111 65.588-36.103 150.959 11.964 212.63 5.224 6.68 4.025 16.34-2.675 21.527-6.674 5.224-16.333 4.025-21.524-2.671zM994.551 78.213l-241.619 215.901-83.907-83.934 215.805-241.712c21.951-28.399 61.467-24.225 96.977 11.295 35.49 35.5 41.154 76.502 12.745 98.45z" />
<glyph unicode="&#xe926;" glyph-name="top" d="M900.608 219.294c-38.046-37.927-99.564-37.927-137.531 0v0l-251.077 251.077-250.998-251.077c-37.967-37.927-99.564-37.927-137.531 0v0c-37.967 38.006-37.967 99.604 0 137.61v0l319.803 319.764c18.117 18.038 43.126 28.475 68.726 28.475v0c25.6 0 50.688-10.437 68.766-28.514v0l319.842-319.764c18.905-18.983 28.436-43.914 28.436-68.766v0c0-24.891-9.492-49.822-28.436-68.805v0z" />
<glyph unicode="&#xe927;" glyph-name="line" d="M509.804 897.584c-254.707 0-461.194-168.976-461.194-377.429 0-187.176 166.534-342.446 384.936-372.191-0.051-0.029-0.144-0.079-0.144-0.079 0.975-0.108 1.886-0.21 2.839-0.318 2.399-0.318 4.79-0.614 7.196-0.889 23.965-3.302 35.344-9.082 34.969-35.2-0.426-29.535-11.986-51.369-18.835-65.494s-21.407-71.917 44.52-35.958c50.748 27.671 300.007 149.563 412.101 331.594 29.673 45.148 48.335 95.831 53.32 149.642 0.159 1.655 0.325 3.309 0.462 4.964 0.188 2.587 0.383 5.18 0.513 7.788 0.303 5.354 0.499 10.715 0.499 16.133 0.007 208.46-206.473 377.436-461.18 377.436zM316.306 411.218h-87.833c-12.976 0-23.503 10.519-23.503 23.503v178.144c0 12.983 10.527 23.503 23.503 23.503 12.983 0 23.503-10.519 23.503-23.503v-154.635h64.331c12.99 0 23.503-10.527 23.503-23.503 0.007-12.983-10.512-23.51-23.503-23.51zM416.508 434.721c0-12.983-10.527-23.503-23.503-23.503s-23.503 10.519-23.503 23.503v178.144c0 12.983 10.527 23.503 23.503 23.503s23.503-10.519 23.503-23.503v-178.144zM631.059 418.103c-0.267-0.267-0.585-0.448-0.867-0.701-0.86-0.78-1.727-1.561-2.702-2.211-0.686-0.455-1.423-0.788-2.16-1.17-0.629-0.332-1.221-0.722-1.886-0.997-0.86-0.354-1.756-0.571-2.644-0.824-0.585-0.166-1.142-0.397-1.748-0.513-1.524-0.303-3.071-0.462-4.617-0.462h-0.007c-0.079 0-0.152 0.022-0.224 0.022-1.459 0.022-2.919 0.152-4.364 0.441-0.766 0.152-1.467 0.433-2.204 0.657-0.737 0.217-1.474 0.383-2.182 0.679-0.86 0.354-1.647 0.831-2.449 1.286-0.527 0.303-1.091 0.527-1.604 0.867-2.897 1.943-5.281 4.544-7.080 7.543l-91.222 120.519v-108.518c0-12.983-10.527-23.503-23.503-23.503s-23.503 10.519-23.503 23.503v178.144c0 0.405 0.101 0.78 0.123 1.185 0.051 1.142 0.123 2.269 0.34 3.388 0.166 0.874 0.477 1.691 0.751 2.529 0.195 0.621 0.325 1.25 0.578 1.857 0.397 0.968 0.925 1.85 1.445 2.745 0.253 0.433 0.441 0.889 0.715 1.308 1.734 2.594 3.959 4.826 6.56 6.56 0.448 0.303 0.946 0.499 1.416 0.766 0.86 0.484 1.698 0.997 2.623 1.373 0.679 0.282 1.387 0.433 2.095 0.657 0.751 0.224 1.496 0.52 2.283 0.679 1.366 0.267 2.753 0.39 4.147 0.412 0.152 0.007 0.296 0.043 0.441 0.043 0.079 0 0.159-0.022 0.246-0.022 1.467-0.014 2.919-0.152 4.364-0.433 0.708-0.144 1.366-0.412 2.052-0.607 0.78-0.231 1.575-0.419 2.334-0.73 0.795-0.325 1.524-0.78 2.269-1.192 0.592-0.325 1.207-0.592 1.777-0.968 1.293-0.86 2.493-1.835 3.584-2.933 0.007 0 0.007 0 0.007 0v0c1.351-1.358 2.471-2.926 3.461-4.573l91.236-120.533v108.489c0 12.983 10.527 23.503 23.503 23.503 12.983 0 23.503-10.519 23.503-23.503v-178.065c0.007-1.582-0.152-3.157-0.462-4.703-0.101-0.52-0.311-0.997-0.448-1.496-0.267-0.983-0.506-1.951-0.896-2.89-0.26-0.629-0.629-1.185-0.939-1.792-0.397-0.751-0.751-1.524-1.228-2.247-0.621-0.939-1.373-1.777-2.124-2.608-0.282-0.325-0.499-0.665-0.788-0.961zM785.152 547.299c12.99 0 23.51-10.534 23.51-23.503s-10.519-23.503-23.51-23.503h-64.331v-42.056h64.331c12.99 0 23.51-10.527 23.51-23.503s-10.519-23.503-23.51-23.503h-87.833c-12.976 0-23.51 10.519-23.51 23.503v178.13c0 12.983 10.534 23.503 23.51 23.503h87.833c12.99 0 23.51-10.527 23.51-23.503s-10.519-23.503-23.51-23.503h-64.331v-42.056h64.331z" />
<glyph unicode="&#xe928;" glyph-name="pocket" d="M880.326 858.685h-742.207c-50.48 0-91.395-40.922-91.395-91.395v-251.13c0-2.016 0.094-3.873 0.217-5.643-0.137-4.378-0.217-8.836-0.217-13.417 0-255.436 207.073-462.502 462.509-462.502 252.677 0 457.885 202.651 462.293 454.28 0.13 1.698 0.21 3.49 0.21 5.505v272.899c0 50.473-40.929 91.402-91.409 91.402zM767.53 511.998l-207.059-207.044c-13.995-14.002-33.003-19.847-51.246-17.65-18.228-2.204-37.252 3.649-51.246 17.643l-207.059 207.051c-24.196 24.196-24.196 63.42 0 87.609 24.196 24.196 63.427 24.196 87.616 0l170.688-170.681 170.681 170.681c24.203 24.196 63.427 24.196 87.624 0 24.189-24.182 24.189-63.42 0-87.609z" />
<glyph unicode="&#xe929;" glyph-name="feedly" d="M977.883 426.441l-425.662 425.634c-22.209 22.224-58.233 22.224-80.435 0l-425.662-425.634c-22.209-22.238-22.224-58.254 0-80.464l318.719-318.712h294.314l318.712 318.712c22.224 22.231 22.224 58.225 0.014 80.464zM269.626 337.365l-47.374 47.366c-3.295 3.302-3.295 8.655 0 11.957l281.027 281.042c3.316 3.302 8.67 3.302 11.986 0l63.247-63.283c3.287-3.302 3.287-8.641 0-11.95l-265.14-265.132h-43.747zM581.258 161.207l-47.388-47.366h-43.747l-47.374 47.366c-3.295 3.302-3.295 8.648 0 11.95l63.268 63.276c3.302 3.316 8.655 3.316 11.979 0l63.261-63.276c3.287-3.302 3.287-8.641 0-11.95zM581.937 384.023l-157.618-157.604h-43.747l-47.374 47.366c-3.295 3.295-3.295 8.648 0 11.95l173.513 173.521c3.302 3.309 8.655 3.309 11.972 0l63.261-63.276c3.28-3.302 3.28-8.641-0.007-11.957z" />
<glyph unicode="&#xe92a;" glyph-name="convenience" d="M311.014 797.082c-2.534-9.651-0.845-19.891 4.659-28.262l10.189-15.462c9.856-14.95 29.338-20.096 45.286-12.032 146.867 74.342 332.826 25.011 423.373-112.333 99.84-151.398 57.882-355.814-93.568-455.654-151.398-99.84-355.84-57.882-455.654 93.517-42.752 64.87-60.928 142.054-51.942 219.034l57.702-15.334c5.35-1.408 11.085 0.179 14.925 4.198 3.84 3.968 5.248 9.754 3.635 15.053l-58.598 191.872c-0.435 1.382-1.050 2.714-1.869 3.942-2.048 3.072-5.171 5.376-8.832 6.374-5.12 1.357-10.547-0.051-14.413-3.661l-145.946-137.472c-4.045-3.814-5.709-9.523-4.326-14.925 0.435-1.69 1.126-3.251 2.048-4.685 2.048-3.046 5.171-5.35 8.858-6.349l60.134-15.949c-15.078-101.709 7.654-204.621 64.512-290.842 61.414-93.158 155.418-156.774 264.704-179.2 109.286-22.502 220.774-1.024 313.907 60.365 93.158 61.414 156.8 155.443 179.226 264.73s0.973 220.749-60.442 313.907c-61.389 93.158-155.418 156.8-264.704 179.226-46.797 9.574-94.234 11.213-141.082 4.787-46.72-6.426-91.75-20.736-133.862-42.419-8.909-4.608-15.411-12.749-17.92-22.426zM486.298 291.354h-177.075v44.672l32.128 38.579c47.821 55.603 76.646 91.75 76.646 129.101 0 23.552-12.774 43.034-39.424 43.034-18.637 0-36.864-10.547-49.638-20.685l-16.794 51.942c17.178 13.773 47.462 26.368 79.232 26.368 62.413 0 90.547-42.624 90.547-94.157 0-82.33-84.864-159.181-84.864-159.181h89.267v-59.674zM689.408 291.354h-58.086v71.885h-122.854v46.669l94.925 194.739h86.016v-187.392h38.63v-54.016h-38.63v-71.885zM577.69 417.229h54.093l-0.051 113.613c-7.68-18.253-54.042-113.613-54.042-113.613z" />
<glyph unicode="&#xe92b;" glyph-name="lure" d="M544.64 357.53l-1.408 0.461c-3.328 1.562-18.304 3.866-27.213-0.896-1.818-0.768-2.176-2.33 0.819-4.915 8.806-7.834 15.334-14.618 18.278-21.837 2.176-5.402 5.248-4.019 5.99-2.816 0.794 1.254 2.432 5.376 3.763 8.832 4.531-2.586 8.422-6.118 11.418-10.522 5.376-7.808 7.45-17.229 5.709-26.573-1.715-9.318-6.938-17.485-14.746-22.861-7.808-5.402-17.254-7.424-26.598-5.734-9.318 1.715-17.459 6.963-22.835 14.746l-47.718 69.069c1.28 2.227 2.202 4.634 2.637 7.091 1.050 5.606-0.077 11.674-3.61 16.768-3.507 5.043-8.806 8.269-14.413 9.293-5.606 0.998-11.699-0.128-16.768-3.635-5.043-3.507-8.294-8.806-9.293-14.413-1.050-5.606 0.051-11.699 3.61-16.742 3.482-5.069 8.781-8.269 14.387-9.318 2.483-0.461 5.094-0.461 7.629-0.051l47.693-69.018c5.402-7.808 7.424-17.254 5.734-26.598-1.715-9.318-6.963-17.485-14.771-22.861s-17.254-7.424-26.598-5.76c-9.37 1.715-17.485 7.014-22.861 14.771-3.046 4.403-4.966 9.293-5.811 14.438 3.738 0 8.141 0.051 9.574 0.384 1.408 0.307 3.738 2.637-0.486 6.63-5.683 5.299-9.779 13.773-13.952 24.832-1.382 3.738-2.944 3.917-4.301 2.483-7.603-6.656-10.752-21.453-10.496-25.114l-0.051-1.485c-0.435-11.878 2.944-23.296 9.677-33.101 8.32-12.032 20.838-20.096 35.226-22.758s28.928 0.538 40.986 8.858h0.026c12.032 8.32 20.122 20.813 22.758 35.251 0.589 3.302 0.87 6.63 0.87 10.010 3.098-1.178 6.323-2.125 9.677-2.714 14.387-2.662 28.928 0.512 40.986 8.832v0c12.058 8.294 20.147 20.813 22.758 35.2 2.662 14.413-0.486 28.954-8.806 41.011-6.733 9.779-16.23 16.973-27.469 20.762zM434.227 360.576c-1.434-0.973-3.021-1.254-4.582-0.973-1.562 0.307-2.944 1.126-3.942 2.534-0.973 1.434-1.254 3.021-0.973 4.582 0.307 1.562 1.126 2.97 2.534 3.917 1.434 0.947 2.995 1.28 4.582 0.973 1.536-0.307 2.944-1.152 3.917-2.534 0.998-1.434 1.254-2.995 0.998-4.582-0.307-1.536-1.152-2.944-2.534-3.917zM933.555 451.174c-6.758 9.805-16.256 16.973-27.494 20.787l-1.434 0.461c-3.302 1.536-18.253 3.84-27.187-0.922-1.843-0.742-2.15-2.304 0.794-4.941 8.858-7.782 15.36-14.566 18.304-21.786 2.202-5.427 5.222-4.019 5.99-2.816 0.794 1.254 2.406 5.325 3.738 8.858 4.531-2.611 8.422-6.144 11.469-10.573 5.35-7.808 7.424-17.203 5.734-26.547-1.715-9.344-6.963-17.485-14.771-22.861-7.808-5.427-17.254-7.45-26.598-5.734-9.344 1.69-17.459 6.938-22.835 14.746l-47.744 69.043c1.306 2.202 2.176 4.634 2.662 7.117 1.024 5.632-0.102 11.674-3.635 16.768-3.482 5.069-8.781 8.269-14.387 9.267-5.606 1.050-11.699-0.102-16.768-3.61-5.043-3.507-8.269-8.806-9.318-14.413-1.024-5.606 0.128-11.699 3.635-16.742 3.533-5.069 8.781-8.243 14.413-9.293 2.483-0.486 5.043-0.486 7.552-0.077l47.718-68.992c5.402-7.859 7.424-17.28 5.709-26.624-1.69-9.293-6.963-17.459-14.746-22.861-7.808-5.402-17.28-7.398-26.598-5.734-9.37 1.715-17.485 6.963-22.886 14.771-2.995 4.403-4.941 9.267-5.786 14.413 3.738 0 8.141 0.077 9.6 0.41 1.382 0.307 3.763 2.611-0.512 6.605-5.709 5.274-9.754 13.798-13.926 24.806-1.382 3.738-2.944 3.942-4.326 2.509-7.603-6.656-10.726-21.453-10.47-25.088l-0.051-1.485c-0.461-11.878 2.918-23.296 9.677-33.075 8.346-12.083 20.838-20.122 35.2-22.81 14.413-2.637 28.954 0.538 41.011 8.858v0.026c12.058 8.32 20.147 20.813 22.758 35.2 0.589 3.354 0.87 6.707 0.87 10.010 3.149-1.152 6.349-2.074 9.702-2.688 14.387-2.637 28.928 0.486 40.986 8.806v0c12.083 8.346 20.147 20.864 22.784 35.277 2.637 14.31-0.486 28.902-8.832 40.934zM795.622 475.008c-1.408-0.998-3.021-1.254-4.557-0.998-1.562 0.307-2.97 1.152-3.917 2.534-0.998 1.434-1.254 3.021-0.998 4.582 0.307 1.562 1.152 2.944 2.56 3.942 1.382 0.947 2.995 1.254 4.557 0.998 1.562-0.307 2.944-1.178 3.917-2.534 0.973-1.459 1.229-3.021 0.973-4.608-0.282-1.562-1.152-2.944-2.534-3.917zM760.832 544.87c-92.851 95.078-263.654 168.653-421.043 148.301-127.206-16.461-187.776-99.379-202.163-145.024-0.128 0.154-0.256 0.333-0.41 0.435-5.965 5.965-14.31 9.728-23.398 9.728-9.114 0-17.459-3.738-23.398-9.728-5.99-5.965-9.728-14.285-9.728-23.398 0-9.139 3.738-17.459 9.728-23.45 5.939-5.939 14.285-9.677 23.398-9.651 9.088-0.026 17.434 3.712 23.398 9.651 1.434 1.459 2.714 3.046 3.866 4.71 3.072-6.784 6.758-13.261 10.957-19.43l-51.994-60.672c-6.426-7.475-5.555-18.688 1.92-25.114 7.475-6.451 18.714-5.581 25.139 1.92l48.691 56.781c54.835-49.894 148.301-71.552 219.494-69.018 57.702 1.997 141.542 40.755 189.056 63.411 47.59 22.63 158.362 26.061 168.576 28.288 10.163 2.227 20.352 50.918 7.91 62.259zM126.413 512.563c-3.251-3.251-7.654-5.222-12.595-5.222-4.966 0-9.37 1.946-12.621 5.197-3.226 3.277-5.222 7.654-5.222 12.646 0 4.941 1.997 9.344 5.222 12.621 3.251 3.251 7.654 5.197 12.621 5.197 4.941 0 9.344-1.946 12.595-5.197 3.251-3.277 5.222-7.68 5.222-12.621 0-4.992-1.971-9.37-5.222-12.621zM225.050 512.691c-21.12 0-38.221 17.126-38.221 38.195 0 21.094 17.101 38.221 38.221 38.221s38.195-17.101 38.195-38.195c0-21.094-17.101-38.221-38.195-38.221zM223.923 566.81c-8.243 0-14.95-6.733-14.95-15.002 0-8.243 6.707-14.95 14.95-14.95 8.269 0 14.95 6.707 14.95 14.95 0.026 8.269-6.682 15.002-14.95 15.002z" />
<glyph unicode="&#xe92c;" glyph-name="kumade" d="M568.090 318.848c-1.818 4.454-3.738 8.909-5.76 13.338-1.869 3.866-3.558 6.733-5.35 10.138l-0.64 1.254-0.358 0.589-0.154 0.307-0.896 1.485-1.741 2.765c-1.203 1.843-2.432 3.686-3.712 5.504-4.992 7.168-10.778 14.234-16.717 20.454-5.274 5.478-10.522 10.982-15.821 16.486-10.445 10.982-21.197 21.76-31.872 32.563-10.829 10.65-21.632 21.402-32.563 31.846-5.453 5.248-10.906 10.496-16.333 15.718-4.096 3.84-5.043 4.787-9.677 8.704l-10.752 8.294c-14.925 10.291-31.462 17.894-48.512 22.477-17.050 4.557-34.56 5.53-51.354 4.25-16.845-1.229-33.024-5.53-47.795-11.853-7.552-2.867-14.413-6.963-21.248-10.778-6.451-4.48-13.056-8.576-18.662-13.824-2.867-2.611-5.76-4.787-8.525-7.706-2.714-2.944-5.427-5.862-8.115-8.781-2.97-3.098-4.301-5.35-6.298-7.936l-2.765-3.738-1.408-1.869-0.333-0.461-0.819-1.126-0.179-0.256-0.64-0.947c-6.81-10.266-13.338-20.173-19.661-29.696-25.267-37.965-45.978-69.888-60.57-92.186-14.566-22.272-22.886-34.995-22.886-34.995l24.627-17.357c0 0 9.19 12.134 25.242 33.357 16.051 21.248 39.117 51.533 66.381 88.090 6.835 9.139 13.952 18.662 21.325 28.518 1.715 2.048 3.482 4.147 5.197 6.272 1.971 2.253 4.173 5.274 5.862 6.502 1.741 1.613 3.533 3.277 5.299 4.941 1.715 1.664 4.198 3.277 6.246 4.941 4.096 3.584 9.114 6.016 13.747 9.062 5.043 2.381 9.958 5.146 15.411 6.861 10.598 3.942 22.042 6.451 33.69 6.63 2.867 0.077 5.76 0.051 8.627-0.077 0.179 0 0.333-0.026 0.486-0.026 5.402-0.282 10.752-0.896 16.051-1.997 0.845-0.179 1.638-0.358 2.458-0.538 2.355-0.538 4.71-1.126 6.989-1.869 8.243-2.688 16.077-6.605 23.45-11.264 0.691-0.486 1.408-0.768 2.074-1.254l-201.498-239.642 18.842-17.229 220.109 221.491c9.626-10.010 19.456-19.891 29.235-29.85 9.549-9.421 19.098-18.867 28.723-28.16l-215.91-226.074 14.413-15.155 236.979 204.339 1.203-1.715c-0.256 0.435 0.794-1.28-0.512 0.87l0.205-0.307 0.358-0.589 0.717-1.203c1.818-3.072 4.096-6.579 5.581-9.318 1.024-2.33 2.15-4.634 3.328-6.912l3.021-8.218c0.64-1.946 1.152-3.942 1.638-5.939 0.435-1.638 0.794-3.277 1.152-4.915 0.845-4.096 1.434-8.192 1.741-12.339 0.154-1.69 0.256-3.379 0.307-5.069 0.077-2.048 0.154-4.122 0.102-6.17-0.307-11.622-2.432-23.091-6.272-33.818-3.917-10.65-9.421-20.506-15.872-29.312-1.69-2.15-3.405-4.275-5.043-6.4-1.869-1.946-3.738-3.891-5.581-5.862-1.715-2.048-3.917-3.558-5.862-5.35-1.971-1.715-3.789-3.456-6.426-5.402-9.702-7.578-19.072-14.899-28.058-21.914-36.019-28.032-65.766-51.738-86.682-68.25-20.864-16.538-32.794-25.984-32.794-25.984l16.691-22.81c0 0 12.595 8.55 34.662 23.475 22.042 14.95 53.632 36.173 91.213 62.080 9.395 6.477 19.2 13.21 29.338 20.147 2.406 1.587 5.325 3.814 8.192 6.042 2.816 2.253 5.888 4.25 8.499 6.861 2.688 2.534 5.427 5.043 8.166 7.603 2.586 2.714 5.018 5.555 7.578 8.397 9.83 11.597 18.253 25.037 24.55 39.834 6.246 14.822 10.24 31.053 11.571 47.898 1.331 16.819-0.077 34.304-4.634 51.354-1.306 4.224-2.56 8.422-4.019 12.698zM657.536 644.71l-172.646-172.621 51.712-51.686 172.595 172.646zM914.048 830.336l-19.251 19.251c-18.611 18.611-48.794 18.611-67.456-0.051l-165.018-165.018 86.733-86.707 165.018 165.018c18.637 18.688 18.637 48.87-0.026 67.507z" />
<glyph unicode="&#xe92d;" glyph-name="parasol" d="M537.446 791.731c-2.509 11.802-12.902 20.557-25.523 20.557-12.544 0-22.912-8.755-25.421-20.557-202.445-12.749-364.083-175.386-374.835-378.598-0.026-0.307 0.256-0.41 0.41-0.589v0 0c0.461-0.512 1.306-0.742 1.587 0.102 15.488 34.304 67.686 59.546 129.741 59.546 62.694 0 115.354-25.907 130.125-60.8 0 0 0 0 0-0.154 1.638-3.61 2.765-7.347 3.379-11.238h0.128c0.512-2.739 0.998-2.739 1.51 0 1.254 6.989 3.866 13.645 7.885 19.994 15.283 24.448 49.92 42.906 92.467 49.357 2.355 0.358 4.634 0.794 6.989 1.050v-360.55c0-14.413 11.622-26.138 26.035-26.138 14.49 0 26.138 11.75 26.138 26.138v323.379l0.026 37.197c45.773-5.402 83.302-24.653 99.584-50.304 0 0 0 0 0-0.154 3.994-6.349 6.656-13.005 7.91-19.994 0.256-1.357 0.512-2.099 0.742-2.099s0.512 0.742 0.742 2.099c0.614 3.738 1.741 7.501 3.379 11.162 14.49 35.149 67.302 61.056 130.125 61.056 62.208 0 114.381-25.242 129.766-59.802 0.384-0.998 2.125-0.512 1.997 0.589-10.65 203.11-172.442 366.003-374.886 378.752zM370.534 479.539c-33.024 23.347-78.643 36.454-127.13 36.454-20.659 0-41.062-2.509-60.262-7.091-3.226-0.742-6.477-1.408-9.626-2.253 35.021 104.448 114.867 184.96 216.858 221.21 14.669 5.094 29.798 9.344 45.363 12.646-28.442-48.512-49.69-124.493-60.57-215.398-1.792-14.874-3.379-30.029-4.634-45.568zM396.467 487.245c10.138 114.893 37.786 213.094 73.165 259.098 14.515 1.638 28.646 2.509 42.419 2.509 13.491 0 27.75-0.845 42.163-2.509 30.95-40.243 55.987-120.397 68.659-216.806 1.741-13.798 3.251-27.955 4.506-42.394-31.898 18.611-72.346 28.851-115.328 28.851-37.12 0-72.166-7.552-101.632-21.606-4.813-2.202-9.472-4.608-13.952-7.142zM653.286 479.59c-8.627 111.155-32.026 204.698-65.178 261.248 109.107-23.347 198.963-94.95 246.067-193.946 6.144-13.056 11.622-26.547 16.256-40.499-21.837 6.349-45.286 9.6-69.888 9.6-43.571 0-84.634-10.598-116.070-29.338-3.84-2.278-7.629-4.608-11.187-7.066z" />
<glyph unicode="&#xe92e;" glyph-name="shopping" d="M856.090 666.573l-59.238 48.845-2.227 45.67h-151.706c4.019-11.136 6.784-22.835 7.859-35.046h110.464l1.357-27.827 34.765-28.646h-169.318v44.16c-0.051 64.077-51.968 115.994-116.045 116.019-64.102-0.026-116.019-51.942-116.019-116.019 0-2.15 0-20.403 0-44.16h-170.086l33.741 28.518 2.483 27.955h111.13c1.075 12.237 3.789 23.936 7.859 35.046h-151.040l-4.045-45.542-58.112-49.126-0.461-7.45-33.869-540.365h756.838l-34.33 547.968zM422.912 713.728c0.026 24.653 9.958 46.797 26.112 62.976 16.154 16.154 38.374 26.138 63.002 26.138s46.848-9.984 63.002-26.138c16.154-16.179 26.086-38.323 26.086-62.976v-44.16h-178.176c-0.026 23.757-0.026 42.010-0.026 44.16zM170.88 153.651l30.899 492.57h194.202c0-39.27 0-83.43 0-96.563-11.648-5.171-19.814-16.794-19.814-30.387 0-18.381 14.899-33.28 33.28-33.28s33.28 14.899 33.28 33.28c0 13.568-8.141 25.19-19.789 30.387 0 13.158 0 57.267 0 96.563h178.202v-96.589c-11.648-5.171-19.763-16.768-19.763-30.362 0-18.381 14.874-33.28 33.229-33.28 18.406 0 33.28 14.899 33.28 33.28 0 13.568-8.115 25.19-19.789 30.387v96.538h194.227l30.848-492.544h-682.291zM557.389 761.088h-90.726l-1.152-0.922c-9.421-9.446-15.59-21.274-18.022-34.125h129.050c-2.432 12.851-8.602 24.678-18.048 34.125l-1.101 0.922z" />
<glyph unicode="&#xe92f;" glyph-name="food" d="M417.51 806.349v-174.541c0-11.187-9.779-20.198-21.862-20.198h-5.811c-12.058 0-21.862 9.037-21.862 20.198v175.309c-0.026 28.749-20.966 37.35-41.062 37.35s-41.037-8.602-41.037-37.35v-175.334c0-11.187-9.805-20.198-21.862-20.198h-5.888c-12.058 0-21.862 9.037-21.862 20.198v174.566c0.026 51.456-79.462 49.715-79.462-0.614 0-60.262 0-166.682 0-166.682-0.384-92.518 23.578-116.557 63.104-145.408 31.872-23.219 59.11-36.531 59.11-94.208v-371.021h95.77v371.046c0 57.677 27.213 70.963 59.11 94.208 39.552 28.851 63.488 52.864 63.104 145.408 0 0 0 106.419 0 166.682 0 50.304-79.488 52.045-79.488 0.589zM725.76 788.941c-20.326-52.659-78.874-176.026-82.586-284.979-5.734-169.114 106.496-144.128 108.493-254.925v-221.594h95.309l0.461-1.126c0 0 0 0.486 0 1.126 0 14.797 0 191.155 0 371.021 0 177.92 0 359.219 0 390.477 0.026 64.23-90.035 81.92-121.677 0z" />
<glyph unicode="&#xe930;" glyph-name="market" d="M692.326 142.285c0-34.229-27.748-61.978-61.978-61.978s-61.978 27.748-61.978 61.978c0 34.229 27.748 61.978 61.978 61.978s61.978-27.748 61.978-61.978zM328.986 142.285c0-34.229-27.748-61.978-61.978-61.978s-61.978 27.748-61.978 61.978c0 34.229 27.748 61.978 61.978 61.978s61.978-27.748 61.978-61.978zM112.358 699.75h626.381l41.165 115.917h144.435c14.669 0 26.573-11.878 26.573-26.573s-11.904-26.573-26.573-26.573h-106.906l-183.68-517.146h-376.422l-14.49 53.146h353.408l24.909 70.067h-402.483l-106.317 331.162z" />
<glyph unicode="&#xe931;" glyph-name="g_map" d="M665.718 551.188l-64.534 27.032c-9.188-17.218-19.626-35.532-30.844-54.594l75.938-31.782v-467.156l-268.562 112.468v230.312l-5.844 8.126c-3.126 4.344-15.75 22.156-33.062 47.968v-286.406l-256.872-107.562v467.124l168.782 70.718c-3.75 6.876-7.468 13.812-11.094 20.75-6.376 12.25-11.968 23.75-17.188 34.876l-202.75-84.906v-602.156l338.562 141.812 307.468-128.75 338.594 141.782v602.156l-338.594-141.812zM942.062 132.25l-256.876-107.562v467.156l256.876 107.562v-467.156zM268.094 603c53.438-102.5 129.406-208.094 129.844-208.688l25.126-34.968 25.094 34.968c0.312 0.376 44.562 62 89.156 136.376 22.344 37.312 44.75 77.75 62 116 8.626 19.156 15.938 37.75 21.312 55.5 5.31 17.782 8.75 34.626 8.81 51.376-0.030 113.998-92.374 206.404-206.374 206.436-114.062-0.032-206.406-92.438-206.406-206.438 0.032-16.75 3.532-33.594 8.844-51.376 9.376-30.998 24.75-64.904 42.594-99.186zM320.812 855.812c26.282 26.188 62.22 42.312 102.25 42.376 40.032-0.062 75.968-16.188 102.218-42.376 26.216-26.282 42.31-62.188 42.344-102.25 0.060-7.468-1.94-19.468-6.218-33.562-7.438-24.844-21.406-56.218-38.25-88.438-25.188-48.376-56.626-98.968-81.656-137.188-6.718-10.25-12.906-19.5-18.438-27.718-17.5 25.844-41.75 62.906-65.5 102.968-20.812 35.094-41.156 72.438-55.906 105.876-7.406 16.656-13.376 32.312-17.344 45.876-4.032 13.5-5.876 24.968-5.844 32.188 0.032 40.060 16.158 75.968 42.344 102.248zM423.062 686.438c37.062 0 67.126 30.062 67.126 67.126 0 37.094-30.062 67.126-67.126 67.126s-67.126-30.032-67.126-67.126c0.002-37.064 30.064-67.126 67.126-67.126z" />
</font>
</defs>
</svg>
